<svg xmlns="http://www.w3.org/2000/svg" width="512" height="512" viewBox="0 0 512 512">
  <defs>
    <linearGradient id="bg" x1="0" y1="0" x2="0.25" y2="1"><stop offset="0" stop-color="#FFDD5C"/><stop offset="1" stop-color="#FFA319"/></linearGradient>
    <radialGradient id="glow" cx="50%" cy="50%" r="50%"><stop offset="0" stop-color="#FFFBEA" stop-opacity="0.95"/><stop offset="0.7" stop-color="#FFFBEA" stop-opacity="0.15"/><stop offset="1" stop-color="#FFFBEA" stop-opacity="0"/></radialGradient>
    <linearGradient id="pnl" x1="0.2" y1="0" x2="0.6" y2="1"><stop offset="0" stop-color="#33507F"/><stop offset="1" stop-color="#14233F"/></linearGradient>
  </defs>
  <rect width="512" height="512" rx="118" fill="url(#bg)"/>
  <circle cx="256" cy="158" r="128" fill="url(#glow)"/>
  <circle cx="256" cy="158" r="50" fill="#fff"/>
  <g stroke="#fff" stroke-width="17" stroke-linecap="round"><path d="M256 72v24M188 90l16 16M324 90l-16 16M168 158h22M322 158h22M188 226l16-16M324 226l-16-16"/></g>
  <path d="M198 300 L314 300 L360 436 L152 436 Z" fill="url(#pnl)"/>
  <path d="M198 300 L314 300 L320 322 L192 322 Z" fill="#fff" opacity="0.12"/>
  <g stroke="#88A2D4" stroke-width="6" stroke-opacity="0.6" stroke-linecap="round"><path d="M237 300 L223 436M276 300 L290 436M175 368 L337 368"/></g>
</svg>
